<?xml version="1.0" encoding="UTF-8"?>
<svg width="23px" height="23px" viewBox="0 0 23 23" version="1.1" xmlns="http://www.w3.org/2000/svg" xmlns:xlink="http://www.w3.org/1999/xlink">
    <!-- Generator: Sketch 49 (51002) - http://www.bohemiancoding.com/sketch -->
    <title>ico_square</title>
    <desc>Created with Sketch.</desc>
    <defs></defs>
    <g id="Hotel-layout" stroke="none" stroke-width="1" fill="none" fill-rule="evenodd" stroke-linecap="round" stroke-linejoin="round">
        <g id="Detail_3" transform="translate(-444.000000, -2233.000000)" stroke="#768090">
            <g id="hotel-detail" transform="translate(0.000000, 211.000000)">
                <g id="rooms" transform="translate(135.000000, 1234.000000)">
                    <g id="1" transform="translate(0.000000, 701.000000)">
                        <g id="Group-3" transform="translate(300.000000, 79.000000)">
                            <g id="Group">
                                <g id="ico_square" transform="translate(9.000000, 8.000000)">
                                    <g id="Regular">
                                        <path d="M2.25,22.32 L2.25,7.2" id="Shape"></path>
                                        <polyline id="Shape" points="0 20.16 2.25 22.32 4.5 20.16"></polyline>
                                        <polyline id="Shape" points="4.5 9.36 2.25 7.2 0 9.36"></polyline>
                                        <path d="M6.75,2.88 L22.5,2.88" id="Shape"></path>
                                        <polyline id="Shape" points="9 0.72 6.75 2.88 9 5.04"></polyline>
                                        <polyline id="Shape" points="20.25 5.04 22.5 2.88 20.25 0.72"></polyline>
                                        <path d="M9.5,14.4 L15.25,14.4 C15.5261424,14.4 15.75,14.6149033 15.75,14.88 L15.75,22.32 L9,22.32 L9,14.88 C9,14.6149033 9.22385763,14.4 9.5,14.4 Z" id="Shape"></path>
                                        <path d="M15.75,22.32 L21,22.32 L21,9.36 C21,8.96235498 20.6642136,8.64 20.25,8.64 L13.5,8.64 C13.0857864,8.64 12.75,8.96235498 12.75,9.36 L12.75,14.4" id="Shape"></path>
                                        <path d="M9,22.32 L7.5,22.32" id="Shape"></path>
                                        <path d="M22.5,22.32 L21,22.32" id="Shape"></path>
                                        <path d="M12.75,17.28 L15.75,17.28" id="Shape"></path>
                                        <path d="M18.75,11.52 L21,11.52" id="Shape"></path>
                                        <path d="M18.75,14.4 L21,14.4" id="Shape"></path>
                                    </g>
                                </g>
                            </g>
                        </g>
                    </g>
                </g>
            </g>
        </g>
    </g>
</svg>