<?xml version="1.0" encoding="UTF-8"?>
<svg width="20px" height="17px" viewBox="0 0 20 17" version="1.1" xmlns="http://www.w3.org/2000/svg" xmlns:xlink="http://www.w3.org/1999/xlink">
    <!-- Generator: Sketch 49 (51002) - http://www.bohemiancoding.com/sketch -->
    <title>ico_twitter_footer</title>
    <desc>Created with Sketch.</desc>
    <defs></defs>
    <g id="Hotel-layout" stroke="none" stroke-width="1" fill="none" fill-rule="evenodd">
        <g id="01_Home" transform="translate(-196.000000, -3013.000000)" fill="#A0A9B2" fill-rule="nonzero">
            <g id="footer" transform="translate(0.000000, 2658.000000)">
                <g id="block_1" transform="translate(135.000000, 61.083032)">
                    <g id="follow" transform="translate(0.000000, 261.638989)">
                        <g id="ico_twitter_footer" transform="translate(61.000000, 32.577617)">
                            <path d="M19.6923077,1.92834435 C18.96,2.25537351 18.1796923,2.47213996 17.3661538,2.57739072 C18.2030769,2.0686787 18.8418462,1.26927409 19.1421538,0.305728409 C18.3618462,0.779356845 17.5003077,1.11390392 16.5821538,1.30059872 C15.8412308,0.497435157 14.7852308,0 13.6332308,0 C11.3981538,0 9.59876923,1.84690031 9.59876923,4.11104471 C9.59876923,4.43682088 9.62584615,4.7500672 9.69230769,5.0482777 C6.336,4.88163066 3.36615385,3.24397889 1.37107692,0.749285199 C1.02276923,1.36450097 0.818461538,2.0686787 0.818461538,2.8267348 C0.818461538,4.25012608 1.53846154,5.51188225 2.61169231,6.24237267 C1.96307692,6.22984282 1.32676923,6.03813607 0.787692308,5.73616662 C0.787692308,5.74869647 0.787692308,5.76498528 0.787692308,5.78127409 C0.787692308,7.77853263 2.18707692,9.43748514 4.02215385,9.81964565 C3.69353846,9.91111358 3.33538462,9.95496806 2.96369231,9.95496806 C2.70523077,9.95496806 2.44430769,9.93993224 2.19938462,9.88480089 C2.72246154,11.5124288 4.20676923,12.7090297 5.97169231,12.7478723 C4.59815385,13.8417284 2.85415385,14.5007987 0.966153846,14.5007987 C0.635076923,14.5007987 0.317538462,14.4857628 0,14.4444143 C1.78830769,15.6184615 3.90769231,16.2888087 6.19323077,16.2888087 C13.6221538,16.2888087 17.6836923,10.0238823 17.6836923,4.59344404 C17.6836923,4.41176118 17.6775385,4.23634324 17.6689231,4.06217828 C18.4701538,3.48329908 19.1433846,2.76032658 19.6923077,1.92834435 Z" id="Shape"></path>
                        </g>
                    </g>
                </g>
            </g>
        </g>
    </g>
</svg>