<?xml version="1.0" encoding="UTF-8"?>
<svg width="167px" height="47px" viewBox="0 0 167 47" version="1.1" xmlns="http://www.w3.org/2000/svg" xmlns:xlink="http://www.w3.org/1999/xlink">
    <!-- Generator: Sketch 49 (51002) - http://www.bohemiancoding.com/sketch -->
    <title>Group 2</title>
    <desc>Created with Sketch.</desc>
    <defs></defs>
    <g id="Page-1" stroke="none" stroke-width="1" fill="none" fill-rule="evenodd">
        <g id="Group-2">
            <g id="compass" fill="#5191FA">
                <path d="M34.9008828,42.6853047 C35.7496367,42.1710391 36.0209648,41.0662305 35.5067891,40.2173867 C34.9925234,39.3684531 33.8877148,39.0973047 33.0388711,39.6114805 C30.02075,41.4398906 26.5492773,42.40625 23,42.40625 C12.2993398,42.40625 3.59375,33.7006602 3.59375,23 C3.59375,12.2993398 12.2993398,3.59375 23,3.59375 C33.7006602,3.59375 42.40625,12.2993398 42.40625,23 C42.40625,26.8263555 41.2683789,30.5508281 39.1156328,33.7708281 C38.5639922,34.5958633 38.7857266,35.7118125 39.6106719,36.2632734 C40.4358867,36.8149141 41.5516563,36.5931797 42.1031172,35.7682344 C44.6525234,31.9550859 46,27.5398047 46,23 C46,16.8564844 43.6075508,11.0806992 39.2635156,6.73648437 C34.9193008,2.39244922 29.1435156,0 23,0 C16.8564844,0 11.0806992,2.39244922 6.73648438,6.73648438 C2.39244922,11.0806992 0,16.8564844 0,23 C0,29.1435156 2.39244922,34.9193008 6.73648438,39.2635156 C11.0806992,43.6075508 16.8564844,46 23,46 C27.2058555,46 31.3210586,44.8537734 34.9008828,42.6853047 Z" id="Shape" fill-rule="nonzero"></path>
                <path d="M26.0808511,31.8170213 C26.5404277,31.8170213 26.9148921,31.9702112 27.2212766,32.2765957 C27.5390087,32.5943278 27.6978723,32.9687922 27.6978723,33.4 C27.6978723,33.8425554 27.5390087,34.2226934 27.2212766,34.5404255 C26.9148921,34.84681 26.5404277,35 26.0978723,35 C24.1290683,35 22.4609998,34.3078083 21.0765957,32.9234043 C19.6921917,31.5390002 19,29.8709317 19,27.9191489 L19,12.5829787 C19,12.1517709 19.15319,11.7773066 19.4595745,11.4595745 C19.7773066,11.15319 20.1574446,11 20.6,11 C21.0312078,11 21.4056722,11.15319 21.7234043,11.4595745 C22.0297888,11.7773066 22.1829787,12.1517709 22.1829787,12.5829787 L22.1829787,17.8595745 L24.7531915,17.8595745 C25.1957469,17.8595745 25.5702112,18.0127644 25.8765957,18.3191489 C26.1943278,18.6255334 26.3531915,18.9999978 26.3531915,19.4425532 C26.3531915,19.8851086 26.1943278,20.2595729 25.8765957,20.5659574 C25.5702112,20.8836895 25.1957469,21.0425532 24.7531915,21.0425532 L22.1829787,21.0425532 L22.1829787,27.9191489 C22.1829787,28.9971685 22.5631168,29.9163083 23.3234043,30.6765957 C24.0836917,31.4368832 25.0028315,31.8170213 26.0808511,31.8170213 Z" id="t" stroke="#5191FA" stroke-width="0.6"></path>
            </g>
            <g id="Group" transform="translate(58.000000, 6.000000)" fill="#1A2B48">
                <path d="M0.55,1.57 C0.55,1.4099992 0.60499945,1.27500055 0.715,1.165 C0.82500055,1.05499945 0.9599992,1 1.12,1 L3.91,1 C4.0700008,1 4.20499945,1.05499945 4.315,1.165 C4.42500055,1.27500055 4.48,1.4099992 4.48,1.57 L4.48,9.52 L14.26,9.52 L14.26,1.57 C14.26,1.4099992 14.3149994,1.27500055 14.425,1.165 C14.5350005,1.05499945 14.6699992,1 14.83,1 L17.59,1 C17.7500008,1 17.8849994,1.05499945 17.995,1.165 C18.1050005,1.27500055 18.16,1.4099992 18.16,1.57 L18.16,21.43 C18.16,21.5900008 18.1050005,21.7249994 17.995,21.835 C17.8849994,21.9450005 17.7500008,22 17.59,22 L14.83,22 C14.6699992,22 14.5350005,21.9450005 14.425,21.835 C14.3149994,21.7249994 14.26,21.5900008 14.26,21.43 L14.26,13.15 L4.48,13.15 L4.48,21.43 C4.48,21.5900008 4.42500055,21.7249994 4.315,21.835 C4.20499945,21.9450005 4.0700008,22 3.91,22 L1.12,22 C0.9599992,22 0.82500055,21.9450005 0.715,21.835 C0.60499945,21.7249994 0.55,21.5900008 0.55,21.43 L0.55,1.57 Z M22.03,11.53 C22.03,10.0299925 22.3099972,8.6200066 22.87,7.3 C23.4300028,5.9799934 24.1949951,4.83500485 25.165,3.865 C26.1350048,2.89499515 27.2749935,2.12500285 28.585,1.555 C29.8950065,0.98499715 31.2999925,0.7 32.8,0.7 C34.3000075,0.7 35.7049934,0.98499715 37.015,1.555 C38.3250065,2.12500285 39.4699951,2.89499515 40.45,3.865 C41.4300049,4.83500485 42.1999972,5.9799934 42.76,7.3 C43.3200028,8.6200066 43.6,10.0299925 43.6,11.53 C43.6,13.0300075 43.3200028,14.4349935 42.76,15.745 C42.1999972,17.0550066 41.4300049,18.1949952 40.45,19.165 C39.4699951,20.1350049 38.3250065,20.8999972 37.015,21.46 C35.7049934,22.0200028 34.3000075,22.3 32.8,22.3 C31.2999925,22.3 29.8950065,22.0200028 28.585,21.46 C27.2749935,20.8999972 26.1350048,20.1350049 25.165,19.165 C24.1949951,18.1949952 23.4300028,17.0550066 22.87,15.745 C22.3099972,14.4349935 22.03,13.0300075 22.03,11.53 Z M25.93,11.53 C25.93,12.4700047 26.1099982,13.3599958 26.47,14.2 C26.8300018,15.0400042 27.3199969,15.7699969 27.94,16.39 C28.5600031,17.0100031 29.2899958,17.4999982 30.13,17.86 C30.9700042,18.2200018 31.8599953,18.4 32.8,18.4 C33.7400047,18.4 34.6299958,18.2200018 35.47,17.86 C36.3100042,17.4999982 37.0449969,17.0100031 37.675,16.39 C38.3050032,15.7699969 38.7999982,15.0400042 39.16,14.2 C39.5200018,13.3599958 39.7,12.4700047 39.7,11.53 C39.7,10.5899953 39.5200018,9.7000042 39.16,8.86 C38.7999982,8.0199958 38.3050032,7.28500315 37.675,6.655 C37.0449969,6.02499685 36.3100042,5.52500185 35.47,5.155 C34.6299958,4.78499815 33.7400047,4.6 32.8,4.6 C31.8599953,4.6 30.9700042,4.78499815 30.13,5.155 C29.2899958,5.52500185 28.5600031,6.02499685 27.94,6.655 C27.3199969,7.28500315 26.8300018,8.0199958 26.47,8.86 C26.1099982,9.7000042 25.93,10.5899953 25.93,11.53 Z M49.9,1.15 C49.9200001,1.0299994 49.9749996,0.92500045 50.065,0.835 C50.1550005,0.74499955 50.2799992,0.7 50.44,0.7 L50.92,0.7 C51.1600012,0.7 51.3299995,0.799999 51.43,1 L58.03,15.16 L58.12,15.16 L64.72,1 C64.8200005,0.799999 64.9899988,0.7 65.23,0.7 L65.71,0.7 C65.8700008,0.7 65.9949996,0.74499955 66.085,0.835 C66.1750004,0.92500045 66.2299999,1.0299994 66.25,1.15 L69.79,21.31 C69.8300002,21.5300011 69.8000005,21.6999994 69.7,21.82 C69.5999995,21.9400006 69.450001,22 69.25,22 L66.52,22 C66.3799993,22 66.2600005,21.9500005 66.16,21.85 C66.0599995,21.7499995 65.9900002,21.6500005 65.95,21.55 L64.18,10.18 L64.09,10.18 L58.84,21.97 C58.7599996,22.1900011 58.5900013,22.3 58.33,22.3 L57.79,22.3 C57.5499988,22.3 57.3800005,22.1900011 57.28,21.97 L51.97,10.18 L51.88,10.18 L50.14,21.55 C50.1199999,21.6500005 50.0600005,21.7499995 49.96,21.85 C49.8599995,21.9500005 49.7400007,22 49.6,22 L46.9,22 C46.4599978,22 46.2699997,21.7700023 46.33,21.31 L49.9,1.15 Z M71.77,22 C71.5499989,22 71.3850005,21.9200008 71.275,21.76 C71.1649994,21.5999992 71.1599995,21.420001 71.26,21.22 L80.59,1.03 C80.6900005,0.8099989 80.8599988,0.7 81.1,0.7 L81.4,0.7 C81.5600008,0.7 81.6749996,0.7299997 81.745,0.79 C81.8150003,0.8500003 81.8699998,0.9299995 81.91,1.03 L91.15,21.22 C91.2500005,21.420001 91.2450005,21.5999992 91.135,21.76 C91.0249994,21.9200008 90.8600011,22 90.64,22 L88.03,22 C87.8099989,22 87.6350006,21.9550005 87.505,21.865 C87.3749993,21.7749996 87.2600005,21.6200011 87.16,21.4 L85.69,18.16 L76.72,18.16 L75.25,21.4 C75.1899997,21.5600008 75.0900007,21.6999994 74.95,21.82 C74.8099993,21.9400006 74.6200012,22 74.38,22 L71.77,22 Z M84.22,14.83 L81.22,8.23 L81.13,8.23 L78.19,14.83 L84.22,14.83 Z M93.79,1.57 C93.79,1.4099992 93.8449995,1.27500055 93.955,1.165 C94.0650006,1.05499945 94.1999992,1 94.36,1 L101.41,1 C102.330005,1 103.199996,1.17499825 104.02,1.525 C104.840004,1.87500175 105.554997,2.349997 106.165,2.95 C106.775003,3.550003 107.254998,4.25499595 107.605,5.065 C107.955002,5.87500405 108.13,6.7299955 108.13,7.63 C108.13,8.5700047 107.955002,9.44499595 107.605,10.255 C107.254998,11.065004 106.775003,11.7799969 106.165,12.4 C105.554997,13.0200031 104.845004,13.5049982 104.035,13.855 C103.224996,14.2050018 102.360005,14.38 101.44,14.38 L97.69,14.38 L97.69,21.43 C97.69,21.5900008 97.6350006,21.7249994 97.525,21.835 C97.4149995,21.9450005 97.2800008,22 97.12,22 L94.36,22 C94.1999992,22 94.0650006,21.9450005 93.955,21.835 C93.8449995,21.7249994 93.79,21.5900008 93.79,21.43 L93.79,1.57 Z M101.29,10.72 C101.710002,10.72 102.099998,10.6400008 102.46,10.48 C102.820002,10.3199992 103.134999,10.1000014 103.405,9.82 C103.675001,9.5399986 103.884999,9.2100019 104.035,8.83 C104.185001,8.4499981 104.26,8.0400022 104.26,7.6 C104.26,7.1799979 104.185001,6.79500175 104.035,6.445 C103.884999,6.09499825 103.675001,5.7900013 103.405,5.53 C103.134999,5.2699987 102.820002,5.06500075 102.46,4.915 C102.099998,4.76499925 101.710002,4.69 101.29,4.69 L97.69,4.69 L97.69,10.72 L101.29,10.72 Z" id="HOMAP"></path>
                <path d="M6.0371999,28.8685001 L7.37099988,28.8685001 L7.37099988,37 L6.0371999,37 L6.0371999,33.4081001 L2.21129996,33.4081001 L2.21129996,37 L0.877499986,37 L0.877499986,28.8685001 L2.21129996,28.8685001 L2.21129996,32.3785001 L6.0371999,32.3785001 L6.0371999,28.8685001 Z M13.3145998,35.3971 C13.7046017,35.0070981 13.8995998,34.4650035 13.8995998,33.7708001 C13.8995998,33.0765966 13.7104517,32.536452 13.3321498,32.1503501 C12.9538479,31.7642482 12.4956025,31.5712001 11.9573998,31.5712001 C11.4191971,31.5712001 10.9668017,31.7642482 10.6001998,32.1503501 C10.233598,32.536452 10.0502998,33.0785466 10.0502998,33.7766501 C10.0502998,34.4747535 10.229698,35.0168481 10.5884998,35.40295 C10.9473016,35.789052 11.3938471,35.9821 11.9281498,35.9821 C12.4624525,35.9821 12.9245978,35.787102 13.3145998,35.3971 Z M11.9222998,37.1053 C10.9862951,37.1053 10.2141029,36.7991531 9.60569984,36.18685 C8.99729681,35.574547 8.69309986,34.771155 8.69309986,33.7766501 C8.69309986,32.7821451 9.00704671,31.9787531 9.63494984,31.3664501 C10.262853,30.754147 11.0447951,30.4480001 11.9807998,30.4480001 C12.9168045,30.4480001 13.6987466,30.754147 14.3266498,31.3664501 C14.9545529,31.9787531 15.2684998,32.7801951 15.2684998,33.7708001 C15.2684998,34.761405 14.946753,35.5647969 14.3032498,36.181 C13.6597466,36.7972031 12.8661045,37.1053 11.9222998,37.1053 Z M19.7144997,31.6414001 L18.1466997,31.6414001 L18.1466997,35.2099 C18.1466997,35.4517012 18.2032491,35.6252495 18.3163497,35.73055 C18.4294503,35.8358505 18.6224983,35.8885 18.8954997,35.8885 L19.7144997,35.8885 L19.7144997,37 L18.6614997,37 C17.4212935,37 16.8011997,36.403306 16.8011997,35.2099 L16.8011997,31.6414001 L16.0406997,31.6414001 L16.0406997,30.5533001 L16.8011997,30.5533001 L16.8011997,28.9504001 L18.1466997,28.9504001 L18.1466997,30.5533001 L19.7144997,30.5533001 L19.7144997,31.6414001 Z M23.6573996,37.1053 C22.7213949,37.1053 21.9609026,36.801103 21.3758997,36.1927 C20.7908967,35.584297 20.4983997,34.7770051 20.4983997,33.7708001 C20.4983997,32.764595 20.7947967,31.9592531 21.3875997,31.3547501 C21.9804026,30.7502471 22.7467449,30.4480001 23.6866496,30.4480001 C24.6265543,30.4480001 25.3889967,30.7385472 25.9739996,31.3196501 C26.5590025,31.900753 26.8514996,32.6592954 26.8514996,33.5953001 C26.8514996,33.8215012 26.8358997,34.0320991 26.8046996,34.2271 L21.8672996,34.2271 C21.8984998,34.7653027 22.079848,35.1923484 22.4113496,35.50825 C22.7428513,35.8241516 23.1581971,35.9821 23.6573996,35.9821 C24.3828032,35.9821 24.8936981,35.681803 25.1900996,35.0812 L26.6291996,35.0812 C26.4341986,35.674003 26.0793021,36.1595481 25.5644996,36.53785 C25.049697,36.9161519 24.4140034,37.1053 23.6573996,37.1053 Z M25.4591996,33.3145001 C25.4513995,32.7840974 25.2759013,32.3609517 24.9326996,32.0450501 C24.5894979,31.7291485 24.1722021,31.5712001 23.6807996,31.5712001 C23.1893972,31.5712001 22.7779513,31.7291485 22.4464496,32.0450501 C22.114948,32.3609517 21.9257999,32.7840974 21.8789996,33.3145001 L25.4591996,33.3145001 Z M28.1618995,37 L28.1618995,28.3420001 L29.4956995,28.3420001 L29.4956995,37 L28.1618995,37 Z M43.3250993,28.8685001 L43.3250993,37 L41.9912993,37 L41.9912993,31.4308001 L39.5108994,37 L38.5865994,37 L36.0944994,31.4308001 L36.0944994,37 L34.7606994,37 L34.7606994,28.8685001 L36.1997994,28.8685001 L39.0545994,35.245 L41.8976993,28.8685001 L43.3250993,28.8685001 Z M49.3271992,35.362 C49.7172011,34.964198 49.9121992,34.4338034 49.9121992,33.7708001 C49.9121992,33.1077967 49.7191511,32.581302 49.3330492,32.1913001 C48.9469473,31.8012981 48.4887019,31.6063001 47.9582992,31.6063001 C47.4278966,31.6063001 46.9696512,31.7973982 46.5835492,32.1796001 C46.1974473,32.561802 46.0043993,33.0843967 46.0043993,33.7474001 C46.0043993,34.4104034 46.1974473,34.942748 46.5835492,35.34445 C46.9696512,35.746152 47.4278966,35.947 47.9582992,35.947 C48.4887019,35.947 48.9449973,35.752002 49.3271992,35.362 Z M47.6774992,37.1053 C46.8194949,37.1053 46.0980022,36.7913531 45.5129993,36.16345 C44.9279963,35.5355469 44.6354993,34.7321549 44.6354993,33.7532501 C44.6354993,32.7743452 44.9260464,31.9787531 45.5071493,31.3664501 C46.0882522,30.754147 46.8116949,30.4480001 47.6774992,30.4480001 C48.1845017,30.4480001 48.6310473,30.563049 49.0171492,30.7931501 C49.4032511,31.0232512 49.7015981,31.3254982 49.9121992,31.6999001 L49.9121992,30.5533001 L51.2576992,30.5533001 L51.2576992,37 L49.9121992,37 L49.9121992,35.7949 C49.6937981,36.192702 49.3935011,36.5105488 49.0112992,36.74845 C48.6290973,36.9863512 48.1845017,37.1053 47.6774992,37.1053 Z M54.3464991,30.5533001 L54.3464991,31.6765001 C54.7599012,30.857496 55.4033947,30.4480001 56.2769991,30.4480001 L56.2769991,31.8286001 L55.9376991,31.8286001 C55.4150965,31.8286001 55.0192504,31.9611988 54.7501491,32.2264001 C54.4810478,32.4916014 54.3464991,32.9517968 54.3464991,33.6070001 L54.3464991,37 L53.0126991,37 L53.0126991,30.5533001 L54.3464991,30.5533001 Z M58.839299,37 L57.5054991,37 L57.5054991,28.3420001 L58.839299,28.3420001 L58.839299,33.3730001 L61.179299,30.5533001 L63.027899,30.5533001 L60.056099,33.7825001 L63.027899,37 L61.226099,37 L58.839299,34.2271 L58.839299,37 Z M66.7016989,37.1053 C65.7656942,37.1053 65.0052019,36.801103 64.4201989,36.1927 C63.835196,35.584297 63.542699,34.7770051 63.542699,33.7708001 C63.542699,32.764595 63.839096,31.9592531 64.4318989,31.3547501 C65.0247019,30.7502471 65.7910442,30.4480001 66.7309489,30.4480001 C67.6708536,30.4480001 68.433296,30.7385472 69.0182989,31.3196501 C69.6033018,31.900753 69.8957989,32.6592954 69.8957989,33.5953001 C69.8957989,33.8215012 69.880199,34.0320991 69.8489989,34.2271 L64.9115989,34.2271 C64.9427991,34.7653027 65.1241473,35.1923484 65.4556489,35.50825 C65.7871506,35.8241516 66.2024964,35.9821 66.7016989,35.9821 C67.4271025,35.9821 67.9379974,35.681803 68.2343989,35.0812 L69.6734989,35.0812 C69.4784979,35.674003 69.1236014,36.1595481 68.6087989,36.53785 C68.0939963,36.9161519 67.4583027,37.1053 66.7016989,37.1053 Z M68.5034989,33.3145001 C68.4956988,32.7840974 68.3202006,32.3609517 67.9769989,32.0450501 C67.6337972,31.7291485 67.2165014,31.5712001 66.7250989,31.5712001 C66.2336965,31.5712001 65.8222506,31.7291485 65.4907489,32.0450501 C65.1592473,32.3609517 64.9700992,32.7840974 64.9232989,33.3145001 L68.5034989,33.3145001 Z M74.3300988,31.6414001 L72.7622988,31.6414001 L72.7622988,35.2099 C72.7622988,35.4517012 72.8188482,35.6252495 72.9319488,35.73055 C73.0450494,35.8358505 73.2380974,35.8885 73.5110988,35.8885 L74.3300988,35.8885 L74.3300988,37 L73.2770988,37 C72.0368926,37 71.4167988,36.403306 71.4167988,35.2099 L71.4167988,31.6414001 L70.6562988,31.6414001 L70.6562988,30.5533001 L71.4167988,30.5533001 L71.4167988,28.9504001 L72.7622988,28.9504001 L72.7622988,30.5533001 L74.3300988,30.5533001 L74.3300988,31.6414001 Z M80.2268987,35.3503 C80.6169006,34.944698 80.8118987,34.4104034 80.8118987,33.7474001 C80.8118987,33.0843967 80.6188506,32.561802 80.2327487,32.1796001 C79.8466468,31.7973982 79.3864514,31.6063001 78.8521487,31.6063001 C78.3178461,31.6063001 77.8576507,31.8012981 77.4715487,32.1913001 C77.0854468,32.581302 76.8923987,33.1077967 76.8923987,33.7708001 C76.8923987,34.4338034 77.0854468,34.9622481 77.4715487,35.35615 C77.8576507,35.750052 78.3158961,35.947 78.8462987,35.947 C79.3767014,35.947 79.8368967,35.748102 80.2268987,35.3503 Z M79.1387987,30.4480001 C80.004603,30.4480001 80.7260958,30.754147 81.3032987,31.3664501 C81.8805016,31.9787531 82.1690987,32.7743452 82.1690987,33.7532501 C82.1690987,34.7321549 81.8785516,35.5355469 81.2974487,36.16345 C80.7163458,36.7913531 79.996803,37.1053 79.1387987,37.1053 C78.6317962,37.1053 78.1872006,36.9863512 77.8049987,36.74845 C77.4227968,36.5105488 77.1185999,36.192702 76.8923987,35.7949 L76.8923987,40.0654 L75.5585988,40.0654 L75.5585988,30.5533001 L76.8923987,30.5533001 L76.8923987,31.6999001 C77.1107998,31.3254982 77.4130468,31.0232512 77.7991487,30.7931501 C78.1852507,30.563049 78.6317962,30.4480001 79.1387987,30.4480001 Z M83.4911986,37 L83.4911986,28.3420001 L84.8249986,28.3420001 L84.8249986,37 L83.4911986,37 Z M90.8270985,35.362 C91.2171005,34.964198 91.4120985,34.4338034 91.4120985,33.7708001 C91.4120985,33.1077967 91.2190504,32.581302 90.8329485,32.1913001 C90.4468466,31.8012981 89.9886012,31.6063001 89.4581985,31.6063001 C88.9277959,31.6063001 88.4695505,31.7973982 88.0834486,32.1796001 C87.6973466,32.561802 87.5042986,33.0843967 87.5042986,33.7474001 C87.5042986,34.4104034 87.6973466,34.942748 88.0834486,35.34445 C88.4695505,35.746152 88.9277959,35.947 89.4581985,35.947 C89.9886012,35.947 90.4448966,35.752002 90.8270985,35.362 Z M89.1773985,37.1053 C88.3193943,37.1053 87.5979015,36.7913531 87.0128986,36.16345 C86.4278957,35.5355469 86.1353986,34.7321549 86.1353986,33.7532501 C86.1353986,32.7743452 86.4259457,31.9787531 87.0070486,31.3664501 C87.5881515,30.754147 88.3115942,30.4480001 89.1773985,30.4480001 C89.6844011,30.4480001 90.1309466,30.563049 90.5170485,30.7931501 C90.9031504,31.0232512 91.2014975,31.3254982 91.4120985,31.6999001 L91.4120985,30.5533001 L92.7575985,30.5533001 L92.7575985,37 L91.4120985,37 L91.4120985,35.7949 C91.1936974,36.192702 90.8934004,36.5105488 90.5111985,36.74845 C90.1289966,36.9863512 89.6844011,37.1053 89.1773985,37.1053 Z M97.2269984,37.1053 C96.2909938,37.1053 95.5305014,36.801103 94.9454985,36.1927 C94.3604955,35.584297 94.0679985,34.778955 94.0679985,33.7766501 C94.0679985,32.7743451 94.3624455,31.9690031 94.9513485,31.3606001 C95.5402514,30.7521971 96.2987938,30.4480001 97.2269984,30.4480001 C98.0070023,30.4480001 98.6524458,30.6332483 99.1633484,31.0037501 C99.6742509,31.3742519 100.019397,31.9026967 100.198798,32.5891001 L98.7596984,32.5891001 C98.5178972,31.9104967 98.0070023,31.5712001 97.2269984,31.5712001 C96.6809957,31.5712001 96.24615,31.7642482 95.9224484,32.1503501 C95.5987468,32.536452 95.4368984,33.0765966 95.4368984,33.7708001 C95.4368984,34.4650035 95.5987468,35.0070981 95.9224484,35.3971 C96.24615,35.787102 96.6809957,35.9821 97.2269984,35.9821 C97.9992023,35.9821 98.5100971,35.6428034 98.7596984,34.9642 L100.198798,34.9642 C100.011597,35.6194033 99.6606009,36.1400481 99.1457984,36.52615 C98.6309958,36.9122519 97.9914022,37.1053 97.2269984,37.1053 Z M104.246998,37.1053 C103.310994,37.1053 102.550501,36.801103 101.965498,36.1927 C101.380495,35.584297 101.087998,34.7770051 101.087998,33.7708001 C101.087998,32.764595 101.384395,31.9592531 101.977198,31.3547501 C102.570001,30.7502471 103.336344,30.4480001 104.276248,30.4480001 C105.216153,30.4480001 105.978595,30.7385472 106.563598,31.3196501 C107.148601,31.900753 107.441098,32.6592954 107.441098,33.5953001 C107.441098,33.8215012 107.425498,34.0320991 107.394298,34.2271 L102.456898,34.2271 C102.488098,34.7653027 102.669447,35.1923484 103.000948,35.50825 C103.33245,35.8241516 103.747796,35.9821 104.246998,35.9821 C104.972402,35.9821 105.483297,35.681803 105.779698,35.0812 L107.218798,35.0812 C107.023797,35.674003 106.668901,36.1595481 106.154098,36.53785 C105.639296,36.9161519 105.003602,37.1053 104.246998,37.1053 Z M106.048798,33.3145001 C106.040998,32.7840974 105.8655,32.3609517 105.522298,32.0450501 C105.179097,31.7291485 104.761801,31.5712001 104.270398,31.5712001 C103.778996,31.5712001 103.36755,31.7291485 103.036048,32.0450501 C102.704547,32.3609517 102.515399,32.7840974 102.468598,33.3145001 L106.048798,33.3145001 Z" id="Hotel-Marketplace"></path>
            </g>
        </g>
    </g>
</svg>