<?xml version="1.0" encoding="UTF-8"?>
<svg width="130px" height="28px" viewBox="0 0 130 28" version="1.1" xmlns="http://www.w3.org/2000/svg" xmlns:xlink="http://www.w3.org/1999/xlink">
    <!-- Generator: Sketch 49 (51002) - http://www.bohemiancoding.com/sketch -->
    <title>Traveler</title>
    <desc>Created with Sketch.</desc>
    <defs></defs>
    <g id="Page-1" stroke="none" stroke-width="1" fill="none" fill-rule="evenodd">
        <g id="01_Home" transform="translate(-50.000000, -35.000000)" fill="#1A2B47" stroke="#1A2B47" stroke-width="0.8">
            <g id="header" transform="translate(50.000000, 29.000000)">
                <path d="M14.872,10.468 L9.432,10.468 L9.432,32.5 L6.474,32.5 L6.474,10.468 L1,10.468 L1,7.612 L14.872,7.612 L14.872,10.468 Z M25.344,14.242 L23.882,16.622 C23.4966647,16.417999 23.1226685,16.316 22.76,16.316 C22.0573298,16.316 21.4226695,16.6616632 20.856,17.353 C20.2893305,18.0443368 19.8643348,18.9509944 19.581,20.073 C19.2976653,21.1950056 19.156,23.2179854 19.156,26.142 L19.156,32.5 L16.3,32.5 L16.3,13.97 L19.156,13.97 L19.156,15.976 C19.7226695,15.1373291 20.2949971,14.514002 20.873,14.106 C21.4510029,13.697998 22.1083297,13.494 22.845,13.494 C23.5816704,13.494 24.414662,13.7433308 25.344,14.242 Z M46.22,32.5 L43.466,32.5 L43.466,29.78 C41.4486566,32.0013444 39.1253465,33.112 36.496,33.112 C33.8666535,33.112 31.6170094,32.1430097 29.747,30.205 C27.8769907,28.2669903 26.942,25.9550134 26.942,23.269 C26.942,20.5829866 27.8826573,18.2823429 29.764,16.367 C31.6453427,14.4516571 33.9403198,13.494 36.649,13.494 C39.3576802,13.494 41.6299908,14.5933223 43.466,16.792 L43.466,13.97 L46.22,13.97 L46.22,32.5 Z M36.7,30.494 C38.5813427,30.494 40.2019932,29.8140068 41.562,28.454 C42.9220068,27.0939932 43.602,25.3996768 43.602,23.371 C43.602,21.3423232 42.93334,19.6423402 41.596,18.271 C40.25866,16.8996598 38.6210097,16.214 36.683,16.214 C34.7449903,16.214 33.10734,16.9223263 31.77,18.339 C30.43266,19.7556738 29.764,21.4273237 29.764,23.354 C29.764,25.2806763 30.4439932,26.9523263 31.804,28.369 C33.1640068,29.7856738 34.7959905,30.494 36.7,30.494 Z M66.858,13.97 L58.392,33.112 L57.712,33.112 L49.178,13.97 L52.136,13.97 L58.018,27.366 L63.9,13.97 L66.858,13.97 Z M88.074,23.728 L71.822,23.728 C71.9353339,25.7680102 72.6209937,27.4056605 73.879,28.641 C75.1370063,29.8763395 76.6386579,30.494 78.384,30.494 C81.3533482,30.494 83.6199922,29.0320146 85.184,26.108 L87.564,27.332 C86.4986613,29.3040099 85.2406739,30.7603286 83.79,31.701 C82.3393261,32.6416714 80.6053434,33.112 78.588,33.112 C75.7999861,33.112 73.4993424,32.1543429 71.686,30.239 C69.8726576,28.3236571 68.966,26.0173468 68.966,23.32 C68.966,20.6226532 69.8783242,18.3106763 71.703,16.384 C73.5276758,14.4573237 75.7886532,13.494 78.486,13.494 C81.1833468,13.494 83.4386576,14.4063242 85.252,16.231 C87.0653424,18.0556758 88.0059997,20.5546508 88.074,23.728 Z M84.946,21.246 C84.6059983,19.6593254 83.8353393,18.4240044 82.634,17.54 C81.4326607,16.6559956 80.0500078,16.214 78.486,16.214 C75.3126508,16.214 73.2046719,17.8913166 72.162,21.246 L84.946,21.246 Z M94.364,32.5 L91.576,32.5 L91.576,7 L94.364,7 L94.364,32.5 Z M116.974,23.728 L100.722,23.728 C100.835334,25.7680102 101.520994,27.4056605 102.779,28.641 C104.037006,29.8763395 105.538658,30.494 107.284,30.494 C110.253348,30.494 112.519992,29.0320146 114.084,26.108 L116.464,27.332 C115.398661,29.3040099 114.140674,30.7603286 112.69,31.701 C111.239326,32.6416714 109.505343,33.112 107.488,33.112 C104.699986,33.112 102.399342,32.1543429 100.586,30.239 C98.7726576,28.3236571 97.866,26.0173468 97.866,23.32 C97.866,20.6226532 98.7783242,18.3106763 100.603,16.384 C102.427676,14.4573237 104.688653,13.494 107.386,13.494 C110.083347,13.494 112.338658,14.4063242 114.152,16.231 C115.965342,18.0556758 116.906,20.5546508 116.974,23.728 Z M113.846,21.246 C113.505998,19.6593254 112.735339,18.4240044 111.534,17.54 C110.332661,16.6559956 108.950008,16.214 107.386,16.214 C104.212651,16.214 102.104672,17.8913166 101.062,21.246 L113.846,21.246 Z M128.636,14.242 L127.174,16.622 C126.788665,16.417999 126.414668,16.316 126.052,16.316 C125.34933,16.316 124.714669,16.6616632 124.148,17.353 C123.58133,18.0443368 123.156335,18.9509944 122.873,20.073 C122.589665,21.1950056 122.448,23.2179854 122.448,26.142 L122.448,32.5 L119.592,32.5 L119.592,13.97 L122.448,13.97 L122.448,15.976 C123.014669,15.1373291 123.586997,14.514002 124.165,14.106 C124.743003,13.697998 125.40033,13.494 126.137,13.494 C126.87367,13.494 127.706662,13.7433308 128.636,14.242 Z" id="Traveler"></path>
            </g>
        </g>
    </g>
</svg>